HIERARCHY
ROOT Hips
{
	OFFSET -3.958830 18.904000 13.208200
	CHANNELS 6 Xposition Yposition Zposition Zrotation Yrotation Xrotation 
	JOINT LHipJoint
	{
		OFFSET 0.000000 0.000000 0.000000
		CHANNELS 3 Zrotation Yrotation Xrotation
		JOINT LeftUpLeg
		{
			OFFSET 1.800000 -1.400000 0.085000
			CHANNELS 3 Zrotation Yrotation Xrotation
			JOINT LeftLeg
			{
				OFFSET 2.215000 -6.000000 0.000000
				CHANNELS 3 Zrotation Yrotation Xrotation
				JOINT LeftFoot
				{
					OFFSET 2.500000 -6.900000 0.000000
					CHANNELS 3 Zrotation Yrotation Xrotation
					JOINT LeftToeBase
					{
						OFFSET 0.200000 -0.500000 1.950000
						CHANNELS 3 Zrotation Yrotation Xrotation
						End Site
						{
							OFFSET 0.000000 0.000000 0.000000
						}
					}
				}
			}
		}
	}
	JOINT RHipJoint
	{
		OFFSET 0.000000 0.000000 0.000000
		CHANNELS 3 Zrotation Yrotation Xrotation
		JOINT RightUpLeg
		{
			OFFSET -1.800000 -1.400000 0.085000
			CHANNELS 3 Zrotation Yrotation Xrotation
			JOINT RightLeg
			{
				OFFSET -2.215000 -6.000000 0.000000
				CHANNELS 3 Zrotation Yrotation Xrotation
				JOINT RightFoot
				{
					OFFSET -2.500000 -6.900000 0.000000
					CHANNELS 3 Zrotation Yrotation Xrotation
					JOINT RightToeBase
					{
						OFFSET -0.200000 -0.500000 1.950000
						CHANNELS 3 Zrotation Yrotation Xrotation
						End Site
						{
							OFFSET 0.000000 0.000000 0.000000
						}
					}
				}
			}
		}
	}
	JOINT LowerBack
	{
		OFFSET 0.000000 0.000000 0.000000
		CHANNELS 3 Zrotation Yrotation Xrotation
		JOINT Spine
		{
			OFFSET -0.087000 1.940000 -0.288900
			CHANNELS 3 Zrotation Yrotation Xrotation
			JOINT Spine1
			{
				OFFSET 0.000000 1.950000 0.060000
				CHANNELS 3 Zrotation Yrotation Xrotation
				JOINT Neck
				{
					OFFSET 0.000000 0.000000 0.000000
					CHANNELS 3 Zrotation Yrotation Xrotation
					JOINT Neck1
					{
						OFFSET 0.000000 1.600000 0.340000
						CHANNELS 3 Zrotation Yrotation Xrotation
						JOINT Head
						{
							OFFSET 0.000000 1.667000 -0.240000
							CHANNELS 3 Zrotation Yrotation Xrotation
							End Site
							{
								OFFSET 0.000000 0.000000 0.000000
							}
						}
					}
				}
				JOINT LeftShoulder
				{
					OFFSET 0.000000 0.000000 0.000000
					CHANNELS 3 Zrotation Yrotation Xrotation
					JOINT LeftArm
					{
						OFFSET 2.700000 1.550000 -0.730000
						CHANNELS 3 Zrotation Yrotation Xrotation
						JOINT LeftForeArm
						{
							OFFSET 5.450000 0.000000 0.000000
							CHANNELS 3 Zrotation Yrotation Xrotation
							JOINT LeftHand
							{
								OFFSET 3.450000 0.000000 0.000000
								CHANNELS 3 Zrotation Yrotation Xrotation
								JOINT LeftHandIndex1
								{
									OFFSET 0.750000 0.000000 0.000000
									CHANNELS 3 Zrotation Yrotation Xrotation
									End Site
									{
										OFFSET 0.000000 0.000000 0.000000
									}
								}
							}
						}
					}
				}
				JOINT RightShoulder
				{
					OFFSET 0.000000 0.000000 0.000000
					CHANNELS 3 Zrotation Yrotation Xrotation
					JOINT RightArm
					{
						OFFSET -2.700000 1.550000 -0.730000
						CHANNELS 3 Zrotation Yrotation Xrotation
						JOINT RightForeArm
						{
							OFFSET -5.450000 0.000000 0.000000
							CHANNELS 3 Zrotation Yrotation Xrotation
							JOINT RightHand
							{
								OFFSET -3.450000 0.000000 0.000000
								CHANNELS 3 Zrotation Yrotation Xrotation
								JOINT RightHandIndex1
								{
									OFFSET -0.750000 0.000000 0.000000
									CHANNELS 3 Zrotation Yrotation Xrotation
									End Site
									{
										OFFSET 0.000000 0.000000 0.000000
									}
								}
							}
						}
					}
				}
			}
		}
	}
}
MOTION
Frames: 14
Frame Time: 0.016667
0.319730 17.000780 -4.924960 -2.939776 29.358169 -6.141105 -15.151151 13.556769 3.397726 8.860480 1.085826 6.688303 -8.470071 6.059144 2.353994 -1.156765 5.987267 2.833949 -0.663410 -1.220460 -0.779210 18.199561 -10.471815 3.311225 3.381481 2.375568 -21.369397 1.544712 -3.529557 3.469072 0.085610 -1.712026 4.289240 -0.499430 0.854100 -0.194800 -4.387389 -2.122072 -8.600358 17.659274 -7.575221 24.130100 -15.036853 -2.260711 1.380704 5.901788 -0.394557 -17.489086 -7.628906 -4.794723 56.784091 6.584970 -11.878730 -23.990640 -22.318276 -20.600051 9.976443 -63.938914 -11.963068 -13.495909 68.934096 -71.573593 -59.441311 -3.689731 0.215846 1.647010 0.063430 -0.312120 0.050080 9.280884 22.765841 12.856001 77.835436 0.014808 -15.250121 -8.681027 14.991793 -1.220783 1.396029 -0.194144 -1.228540 1.130670 1.084820 -0.467230 
0.324900 17.001980 -4.898420 -3.066209 28.898862 -6.079675 -15.158728 13.543741 3.422561 9.097020 1.048943 7.020377 -9.120687 6.188720 2.261960 -1.138415 6.085356 2.798026 -0.670580 -1.228830 -0.779510 18.203407 -10.395304 3.336108 3.802870 2.459251 -21.158119 1.662866 -3.479865 2.810162 0.082952 -1.698481 4.300920 -0.502910 0.850430 -0.202200 -4.345951 -2.221935 -8.631855 17.641775 -7.635266 24.167423 -15.119074 -2.272719 1.277383 6.097801 -0.482352 -17.617166 -7.930154 -4.417957 57.131155 6.467810 -11.610870 -24.390520 -22.382116 -20.574353 9.987903 -63.990759 -11.779345 -13.780001 66.712738 -71.485058 -57.632609 -3.679561 0.297424 1.658180 0.058500 -0.310440 0.043740 8.993031 22.854195 12.916242 77.765531 -0.093297 -15.178435 -8.606146 14.600691 -1.110975 1.398484 -0.177700 -1.237140 1.139180 1.091020 -0.473900 
0.338620 16.997320 -4.839380 -2.809669 28.109402 -5.465497 -15.183864 13.548897 3.464138 9.038722 1.044245 7.354561 -10.282145 6.425895 2.382688 -1.065248 6.192044 2.760931 -0.668770 -1.206930 -0.789280 18.192013 -10.261882 3.380324 4.044943 2.520641 -21.009706 2.500143 -3.393190 1.477870 0.077477 -1.692261 4.316019 -0.502590 0.846060 -0.207160 -4.236495 -2.456410 -8.695622 16.954235 -7.504644 23.773221 -14.833285 -2.295347 1.058649 6.333514 -0.742513 -17.902769 -8.716152 -3.650091 57.313594 6.168150 -11.294240 -23.792240 -22.134105 -20.447823 10.034391 -64.474999 -11.574581 -14.118291 61.211131 -70.679357 -52.849274 -3.648548 0.547808 1.634030 0.058650 -0.303480 0.052520 8.410414 22.991010 13.021629 77.628708 -0.492294 -14.917361 -8.383280 13.540848 -0.871055 1.430904 -0.181355 -1.216470 1.133850 1.075320 -0.456290 
0.359530 16.991650 -4.771450 -3.112222 27.592899 -5.190725 -15.206737 13.569786 3.481432 9.448450 0.973877 7.643879 -10.845428 6.556788 2.289566 -0.995570 6.257123 2.740702 -0.655630 -1.166870 -0.800070 18.187341 -10.110882 3.419605 4.564007 2.603061 -20.583168 3.258520 -3.315927 0.318903 0.058599 -1.706935 4.322422 -0.497350 0.831800 -0.211420 -4.150002 -2.734849 -8.730191 17.130241 -7.910995 23.525853 -14.976698 -2.638598 0.945880 6.793396 -1.069732 -18.116961 -9.716991 -3.106490 57.049081 5.809620 -11.191860 -24.036690 -21.494030 -20.281362 9.975678 -65.017362 -11.701467 -14.237360 55.240816 -69.038023 -47.330755 -3.606410 0.821205 1.612550 0.048520 -0.288870 0.069670 6.945281 23.100963 13.062492 77.684441 -0.581389 -14.440826 -7.542999 11.827306 -0.458591 1.477530 -0.191830 -1.188420 1.122560 1.047680 -0.433070 
0.379210 17.007390 -4.692050 -3.543941 27.067945 -5.450349 -15.222045 13.629296 3.502937 10.015584 0.902821 8.267083 -10.894155 6.661211 2.279406 -0.953557 6.349589 2.693870 -0.638600 -1.136710 -0.804830 18.180406 -9.990733 3.444584 5.122150 2.574189 -19.493126 4.013374 -3.340648 -0.349526 0.015346 -1.749678 4.308171 -0.494520 0.817560 -0.199250 -4.084357 -3.024521 -8.751923 17.366180 -8.405387 23.301358 -15.138026 -2.883599 1.483906 7.196702 -1.501687 -19.041033 -11.265793 -1.702163 59.042369 6.555880 -11.142470 -24.533850 -22.080040 -21.652822 10.460473 -64.647516 -11.482079 -15.025085 51.416582 -66.325937 -43.283929 -3.602526 1.004263 1.626240 0.029670 -0.256780 0.074610 6.875025 24.940141 13.728585 76.785773 -1.022529 -13.756676 -6.747797 9.184597 0.176689 1.508843 -0.167413 -1.162150 1.125050 1.047020 -0.420480 
0.408190 17.022510 -4.607720 -3.989981 26.232116 -5.775059 -15.226515 13.673259 3.536698 10.465781 0.864105 9.056070 -10.855163 6.700280 1.958071 -0.917504 6.429032 2.644937 -0.612300 -1.100880 -0.794560 18.186125 -9.892591 3.442592 5.614672 2.519781 -18.339436 4.655198 -3.436004 -0.400418 -0.034240 -1.798750 4.279552 -0.489610 0.785230 -0.182910 -4.045780 -3.267898 -8.745642 17.946960 -9.160980 23.188367 -15.934099 -3.291708 2.056885 7.796317 -1.800633 -19.967323 -12.553741 -0.153613 60.878971 6.885530 -10.564920 -25.645730 -22.585989 -22.852322 10.908328 -63.853425 -11.079348 -15.700712 49.468960 -63.163056 -40.245220 -3.593621 1.144903 1.650910 0.000400 -0.217670 0.072490 6.250069 26.570693 14.298731 76.527683 -0.793273 -13.643953 -7.677399 8.385753 0.349565 1.518587 -0.173478 -1.133950 1.114600 1.043000 -0.417780 
0.433840 17.036750 -4.523310 -4.396472 25.606589 -5.948746 -15.252505 13.778609 3.560978 10.902877 0.782158 9.302643 -10.805058 6.778424 2.079596 -0.900637 6.488281 2.609927 -0.593930 -1.085850 -0.775320 18.161324 -9.790856 3.438183 6.130784 2.499089 -17.481537 5.045519 -3.546678 0.077611 -0.068410 -1.814599 4.259129 -0.490770 0.757420 -0.173400 -3.940315 -3.618643 -8.736187 18.168288 -9.787673 23.406019 -16.175259 -3.685417 1.731160 8.356551 -2.121034 -20.503915 -13.989369 1.280315 62.173430 7.139510 -10.094910 -26.571970 -23.085196 -23.055888 10.897906 -63.414965 -10.586219 -15.850516 45.362600 -60.181202 -35.862178 -3.567349 1.291946 1.678070 -0.028840 -0.187930 0.067290 5.780846 27.148044 14.581411 76.033977 -1.251274 -13.508440 -7.992588 7.297000 0.623747 1.542537 -0.159383 -1.119860 1.107850 1.039200 -0.422010 
0.462920 17.039380 -4.423330 -4.922460 24.362863 -5.691484 -15.265855 13.818526 3.601467 11.315052 0.668924 9.562804 -10.919457 6.750559 1.422830 -0.888030 6.552482 2.587801 -0.596310 -1.089750 -0.775190 18.165728 -9.666901 3.426583 6.976743 2.593405 -16.891360 5.123556 -3.629091 0.802766 -0.070043 -1.811335 4.263910 -0.488140 0.757280 -0.197040 -3.870129 -3.919698 -8.718040 18.863326 -10.177612 23.050944 -16.429512 -3.968995 0.803146 8.732468 -2.863376 -20.467135 -16.351090 3.025794 62.566287 7.939500 -9.836900 -26.780510 -23.306611 -22.006908 10.246040 -63.207147 -10.107468 -15.188563 39.878397 -56.594143 -30.363878 -3.546280 1.412476 1.688410 -0.043520 -0.192800 0.062040 5.490931 26.551946 14.553551 75.289085 -2.187119 -13.167265 -7.915784 5.788386 0.969392 1.572251 -0.118948 -1.133940 1.128300 1.044200 -0.425640 
0.502470 17.042510 -4.319210 -5.624371 23.468825 -5.463362 -15.281708 13.942245 3.558542 11.675525 0.604270 9.704183 -9.969525 6.763120 1.767636 -0.899907 6.560164 2.589266 -0.585870 -1.078710 -0.785870 18.162485 -9.529993 3.440781 7.664872 2.656588 -16.345306 5.130260 -3.603209 0.666460 -0.083410 -1.811195 4.266558 -0.476680 0.773660 -0.207500 -3.804969 -4.330169 -8.650159 20.092758 -10.782135 22.141237 -16.780081 -4.371393 0.189200 9.220762 -3.796349 -20.794017 -19.650116 5.223887 63.144424 8.683230 -9.942930 -26.186390 -23.806715 -21.406388 9.808908 -63.146863 -9.517486 -14.615223 36.159099 -52.299460 -26.149478 -3.538049 1.500381 1.698950 -0.051860 -0.191170 0.078230 5.317917 26.586837 14.782593 74.086320 -3.442112 -12.611015 -6.314485 3.537530 1.477580 1.602227 -0.067011 -1.141660 1.157420 1.045830 -0.413900 
0.532070 17.054750 -4.204770 -5.494266 22.537385 -4.970593 -15.322260 14.101936 3.570825 11.445038 0.623330 9.922087 -9.542229 6.827559 2.265400 -0.908822 6.559888 2.574090 -0.546890 -1.041950 -0.751300 18.116535 -9.436421 3.439393 7.827109 2.534356 -15.714533 5.015580 -3.590743 0.663193 -0.115918 -1.804117 4.253905 -0.457930 0.742880 -0.211860 -3.655519 -4.761050 -8.647853 19.725443 -10.976668 21.375922 -16.623282 -4.613897 -0.555427 9.709735 -3.912972 -21.515175 -21.306656 7.070128 65.237777 8.679590 -9.539750 -25.850270 -24.493789 -21.298076 9.738778 -62.850806 -8.353345 -14.148020 34.032363 -47.910137 -23.031257 -3.510633 1.569210 1.729500 -0.083050 -0.160660 0.083130 5.307280 26.766768 15.127457 73.201355 -4.734272 -12.416266 -5.833070 2.274892 1.754294 1.627299 -0.037782 -1.135920 1.163340 1.027750 -0.421160 
0.553840 17.075020 -4.080990 -4.945520 21.834059 -4.177454 -15.414404 14.340270 3.637439 11.046929 0.631649 9.927246 -9.281361 6.860458 2.598389 -0.907395 6.542253 2.547721 -0.510210 -1.016520 -0.708150 18.004677 -9.306994 3.445411 7.732534 2.416122 -15.196449 5.014988 -3.561391 0.577317 -0.150147 -1.772690 4.231618 -0.456800 0.681800 -0.197490 -3.349053 -5.399374 -8.720002 18.173230 -11.093818 21.187155 -15.743068 -4.983885 -3.113661 10.556687 -4.043206 -21.903106 -23.108567 8.946727 67.727025 8.140990 -9.132630 -26.290520 -25.787982 -19.563822 9.154257 -62.792106 -5.886364 -13.557270 31.668023 -44.818267 -20.246320 -3.476983 1.637433 1.766130 -0.131390 -0.118590 0.068270 5.400082 25.622271 15.308894 72.058524 -6.853556 -12.505961 -5.630423 2.240855 1.825016 1.655478 -0.003872 -1.109230 1.133250 1.017840 -0.435340 
0.582130 17.088540 -3.949070 -4.574244 20.722431 -2.820717 -15.470560 14.509246 3.649980 10.447685 0.653120 9.399436 -8.954957 6.840812 2.978484 -0.944708 6.487558 2.559820 -0.519920 -1.040980 -0.701780 17.939522 -9.202348 3.466930 7.842645 2.436885 -15.107510 4.953013 -3.494115 0.310877 -0.154943 -1.729218 4.240647 -0.467630 0.673700 -0.200510 -3.154558 -5.882710 -8.758601 17.735383 -11.012434 20.130827 -15.584101 -5.147570 -6.274179 11.298988 -4.137390 -21.722390 -24.646220 10.500714 69.528422 7.664780 -8.971210 -26.189960 -26.204855 -16.861038 8.086080 -63.140146 -3.688355 -12.066824 28.968339 -40.874575 -17.026581 -3.497457 1.641167 1.797970 -0.147270 -0.107310 0.057440 4.832404 23.213719 15.215463 71.418513 -9.366325 -13.068137 -5.717034 3.381124 1.696688 1.649895 0.064646 -1.123560 1.146880 1.033450 -0.446410 
0.612380 17.099830 -3.830560 -4.576687 19.848365 -2.264637 -15.494779 14.616813 3.641318 10.257163 0.654215 9.308001 -8.450061 6.834977 3.415075 -0.983735 6.479085 2.541599 -0.496580 -1.024360 -0.678430 17.912795 -9.143082 3.471316 7.976487 2.369220 -14.429806 4.764721 -3.481284 0.282609 -0.174594 -1.755144 4.207612 -0.446890 0.662660 -0.192450 -3.066429 -6.163128 -8.761398 17.835405 -10.977297 18.667913 -15.596910 -5.259804 -6.333416 11.725600 -4.035437 -22.016540 -25.334841 11.725858 70.954637 7.507520 -8.699370 -25.304840 -27.353074 -16.792654 7.829063 -62.358478 -2.993942 -10.948062 28.381796 -35.627443 -14.864986 -3.532055 1.681299 1.811670 -0.154060 -0.097230 0.048790 5.245937 23.105412 15.505861 69.736092 -10.349437 -13.026242 -6.163721 4.251568 1.575671 1.630474 0.066320 -1.123340 1.149910 1.041200 -0.456390 
0.639640 17.100930 -3.706080 -4.429204 18.491707 -1.168048 -15.521503 14.705287 3.643161 9.953399 0.671740 8.941619 -8.187681 6.793921 3.641060 -0.999046 6.435828 2.547124 -0.483150 -1.005540 -0.675840 17.883738 -9.087259 3.485528 8.117038 2.382017 -14.113597 4.550720 -3.422143 0.185282 -0.176590 -1.766692 4.193857 -0.431100 0.661440 -0.185770 -2.963057 -6.411784 -8.798183 17.829611 -10.578895 16.960993 -15.376460 -5.149136 -7.071452 12.166495 -4.146849 -21.875189 -25.982059 12.543068 71.536811 6.646720 -8.525460 -24.113140 -27.828343 -15.802962 7.280686 -62.171847 -2.002468 -9.503760 26.727353 -30.860038 -12.523953 -3.565073 1.714393 1.797200 -0.148460 -0.096980 0.050880 5.025570 22.351380 15.427624 68.516814 -10.861487 -12.454697 -7.257477 3.357980 1.732678 1.655326 0.052169 -1.113130 1.145960 1.040730 -0.449850 
